PathFileType	4	(X/Y/Z)	Walk1.trc
DataRate	CameraRate	NumFrames	NumMarkers	Units	OrigDataRate	OrigDataStartFrame	OrigNumFrames
200.000000	200.000000	5	59	mm	200.000000	552	584
Frame#	Times		LFHD		RFHD		LBHD		RBHD		C7		T10		CLAV		STRN		RBack		LASI		RACR1		RUA1		RElbow		RFA1		RWRR		RWRU		RCAR		LACR1		LUA1		LElbow		LFA1		LWRU		LCAR		RTH1		RTH3		RTB1		RTB3		RTB4		LTH3		LTH2		LTH4		LLFC		LTB2		LTB4		LToe		RTH2		LMMAL		RTH4		LTH1		LTB1		RTB2		LCAL		LMT1		LTB3		LMT5		RElbowM		LWRR		LLMAL		RLFC		RPSI		LPSI		LElbowM		RASI		RMT1		RToe		RCAL		RMMAL		RLMAL		RMT5
			X1	Y1	Z1	X2	Y2	Z2	X3	Y3	Z3	X4	Y4	Z4	X5	Y5	Z5	X6	Y6	Z6	X7	Y7	Z7	X8	Y8	Z8	X9	Y9	Z9	X10	Y10	Z10	X11	Y11	Z11	X12	Y12	Z12	X13	Y13	Z13	X14	Y14	Z14	X15	Y15	Z15	X16	Y16	Z16	X17	Y17	Z17	X18	Y18	Z18	X19	Y19	Z19	X20	Y20	Z20	X21	Y21	Z21	X22	Y22	Z22	X23	Y23	Z23	X24	Y24	Z24	X25	Y25	Z25	X26	Y26	Z26	X27	Y27	Z27	X28	Y28	Z28	X29	Y29	Z29	X30	Y30	Z30	X31	Y31	Z31	X32	Y32	Z32	X33	Y33	Z33	X34	Y34	Z34	X35	Y35	Z35	X36	Y36	Z36	X37	Y37	Z37	X38	Y38	Z38	X39	Y39	Z39	X40	Y40	Z40	X41	Y41	Z41	X42	Y42	Z42	X43	Y43	Z43	X44	Y44	Z44	X45	Y45	Z45	X46	Y46	Z46	X47	Y47	Z47	X48	Y48	Z48	X49	Y49	Z49	X50	Y50	Z50	X51	Y51	Z51	X52	Y52	Z52	X53	Y53	Z53	X54	Y54	Z54	X55	Y55	Z55	X56	Y56	Z56	X57	Y57	Z57	X58	Y58	Z58	X59	Y59	Z59

552	2.76	790.45	1435.3	-29.355	778.22	1425.3	66.006	661.1	1363.7	-64.885	645.49	1357.5	68.515	614.05	1274.3	3.5345	525.63	1075.6	17.09	754.36	1188.8	4.9971	804.91	1083.5	10.286	563.48	1154.2	123.56	726.4	825.75	-146.48	680.4	1220.5	184.23	685.24	1080.5	268.21	680.53	953.51	302.93	754.89	844.42	302.48	785.63	752	260.61	753.17	743.92	324.79	809.58	698.56	311.66	675.15	1215.1	-182.72	691.68	1054.1	-255.27	659.05	938.76	-280.51	728.89	851.87	-308.44	735.55	742.67	-335.4	783.39	703.48	-335.36	704.51	644.4	227.03	760.67	484.12	189.57	750.22	293.67	124.37	639.74	164.71	99.144	691.56	230.4	111.42	680.3	485.08	-144.03	730.18	580.06	-150.83	676.05	567.94	-173.06	705.51	393.5	-104.41	674.07	208.8	-87.98	690.47	209.36	-27.943	788.47	29.718	-11.772	783.98	586.96	193.58	635.04	75.274	26.097	730.48	563.04	210.73	672.97	651.77	-195.35	714.64	293.63	-35.464	658.81	250.77	158.44	568.55	47.205	-10.293	734.83	33.768	11.874	674.45	127.67	-21.725	693.2	21.847	-75.431	629.28	917.4	233.05	775.27	748.11	-287.09	613.95	59.685	-52.975	750.35	404.34	171.51	484.72	847.31	75.091	476.65	852.37	-30.929	628.72	910.82	-215.23	745.86	834.4	173.73	643.9	53.775	68.052	684.32	36.374	109.34	504.6	145.23	72.313	585.16	138.59	46.421	559.56	138.52	125.66	607.43	57.331	148.76
553	2.765	795.79	1435.5	-29.249	783.49	1425.5	66.102	666.48	1363.9	-64.917	650.79	1357.6	68.495	619.41	1274.5	3.4193	530.97	1075.8	16.706	759.72	1189	5.1542	810.3	1083.6	11.297	568.71	1154.4	123.32	731.42	825.66	-146.72	685.57	1220.7	184.16	689.94	1080.8	268.29	685.09	954.01	303.26	759.41	844.91	303.03	790.15	752.4	261.43	757.62	744.44	325.59	813.99	698.99	312.6	680.8	1215.4	-182.72	697.29	1054.4	-255.41	665.57	938.94	-280.79	736.58	852.71	-308.2	744.66	743.59	-334.86	793.04	705.11	-334.59	710.54	644.88	227.02	768.75	485.43	188.79	761.6	294.62	123.65	654.93	162.57	98.817	704.77	229.73	110.91	683.66	484.9	-143.87	734.21	579.61	-150.46	680.07	567.76	-172.8	707.92	393.07	-104.18	675.23	208.52	-87.805	691.56	208.98	-27.748	788.61	29.635	-11.771	790.78	588.53	193.39	635.26	75.246	26.268	737.53	563.86	210.34	677.72	651.65	-195.16	716.22	293.11	-35.21	671.71	249.03	158.19	568.63	47.434	-10.188	734.88	33.73	11.898	675	127.4	-21.558	693.2	21.857	-75.383	633.86	917.82	233.4	784.1	749.64	-286.4	614.14	59.777	-52.908	759.29	405.46	170.8	489.79	847.62	74.771	481.89	852.55	-31.129	635.26	910.76	-215.55	750.48	834.9	174.25	662.8	52.357	67.802	704.09	36.512	108.91	520.19	138.66	72.716	600.95	134.86	46.49	575.72	133.88	125.82	626.63	54.522	148.74
554	2.77	801.13	1435.6	-29.126	788.78	1425.6	66.214	671.88	1364	-64.931	656.09	1357.7	68.49	624.77	1274.6	3.3118	536.32	1075.9	16.337	765.09	1189.1	5.3158	815.68	1083.7	12.271	573.94	1154.5	123.08	736.47	825.52	-146.91	690.75	1220.9	184.11	694.67	1081.1	268.37	689.66	954.48	303.6	763.96	845.38	303.61	794.7	752.77	262.28	762.09	744.95	326.43	818.42	699.38	313.57	686.48	1215.6	-182.71	702.88	1054.8	-255.55	672.05	939.09	-281.04	744.23	853.55	-307.96	753.74	744.52	-334.3	802.66	706.75	-333.78	716.54	645.31	227.04	776.66	486.69	187.99	772.85	295.56	122.96	670.26	160.41	98.511	717.99	229.04	110.42	687.02	484.71	-143.71	738.23	579.14	-150.08	684.09	567.55	-172.55	710.34	392.63	-103.96	676.38	208.24	-87.633	692.65	208.59	-27.554	788.73	29.555	-11.767	797.5	590.02	193.19	635.46	75.219	26.441	744.48	564.63	209.95	682.46	651.51	-194.96	717.79	292.58	-34.952	684.6	247.24	157.93	568.7	47.667	-10.082	734.92	33.694	11.92	675.54	127.13	-21.387	693.19	21.866	-75.334	638.49	918.2	233.71	792.89	751.19	-285.68	614.32	59.873	-52.844	767.99	406.51	170.09	494.9	847.86	74.509	487.12	852.68	-31.264	641.82	910.69	-215.84	755.11	835.34	174.76	681.86	50.996	67.59	723.94	36.763	108.53	536.11	131.98	73.085	616.98	131.07	46.563	592.11	129.16	125.98	646	51.764	148.73
555	2.775	806.49	1435.8	-28.986	794.07	1425.7	66.344	677.29	1364.1	-64.924	661.4	1357.8	68.501	630.13	1274.7	3.2127	541.66	1076	15.985	770.46	1189.2	5.4811	821.04	1083.7	13.193	579.17	1154.7	122.86	741.54	825.34	-147.05	695.93	1221	184.06	699.44	1081.4	268.45	694.23	954.92	303.94	768.53	845.82	304.23	799.29	753.12	263.17	766.61	745.43	327.3	822.88	699.74	314.57	692.17	1215.9	-182.68	708.45	1055.1	-255.7	678.49	939.22	-281.28	751.83	854.37	-307.71	762.78	745.45	-333.7	812.23	708.39	-332.92	722.53	645.7	227.08	784.39	487.88	187.16	783.97	296.48	122.3	685.7	158.25	98.233	731.2	228.34	109.95	690.38	484.51	-143.55	742.24	578.66	-149.7	688.12	567.32	-172.29	712.75	392.18	-103.74	677.55	207.95	-87.465	693.73	208.21	-27.362	788.85	29.48	-11.759	804.11	591.42	192.98	635.64	75.192	26.615	751.33	565.35	209.56	687.2	651.35	-194.74	719.35	292.04	-34.695	697.47	245.4	157.68	568.77	47.905	-9.9745	734.97	33.659	11.942	676.08	126.87	-21.216	693.19	21.876	-75.286	643.19	918.53	234	801.64	752.75	-284.94	614.51	59.974	-52.781	776.43	407.47	169.4	500.05	848.04	74.312	492.34	852.79	-31.33	648.37	910.61	-216.1	759.75	835.74	175.26	701.06	49.727	67.429	743.85	37.155	108.21	552.37	125.22	73.422	633.24	127.23	46.641	608.73	124.42	126.12	665.53	49.096	148.75
556	2.78	811.85	1435.9	-28.828	799.37	1425.8	66.49	682.7	1364.2	-64.895	666.72	1357.8	68.527	635.49	1274.8	3.1231	547.02	1076.1	15.651	775.83	1189.2	5.6493	826.38	1083.8	14.053	584.4	1154.8	122.65	746.63	825.11	-147.13	701.12	1221.1	184.02	704.25	1081.5	268.54	698.81	955.31	304.28	773.11	846.24	304.87	803.91	753.44	264.08	771.15	745.89	328.2	827.37	700.06	315.6	697.87	1216.1	-182.65	714	1055.4	-255.84	684.9	939.34	-281.5	759.38	855.19	-307.47	771.79	746.4	-333.07	821.75	710.03	-332.02	728.49	646.03	227.16	791.93	489.01	186.32	794.93	297.39	121.68	701.25	156.12	97.988	744.39	227.65	109.52	693.74	484.29	-143.39	746.23	578.17	-149.33	692.14	567.07	-172.04	715.16	391.72	-103.53	678.71	207.67	-87.302	694.81	207.83	-27.175	788.95	29.408	-11.748	810.63	592.72	192.76	635.8	75.165	26.792	758.08	566.01	209.18	691.91	651.16	-194.52	720.92	291.5	-34.445	710.31	243.53	157.45	568.85	48.152	-9.8622	735.01	33.624	11.966	676.61	126.6	-21.046	693.18	21.889	-75.241	647.94	918.8	234.26	810.36	754.32	-284.18	614.69	60.082	-52.718	784.62	408.34	168.72	505.24	848.17	74.185	497.54	852.87	-31.322	654.92	910.5	-216.32	764.42	836.1	175.74	720.41	48.586	67.325	763.8	37.717	107.97	568.97	118.42	73.733	649.72	123.38	46.729	625.56	119.67	126.27	685.19	46.558	148.8
